<svg width="320" height="202" viewBox="0 0 320 202" fill="none" xmlns="http://www.w3.org/2000/svg">
<path d="M159.02 195.671L173.588 129.206C174.113 126.814 176.231 125.11 178.68 125.11H188.358C191.039 125.11 193.283 127.144 193.546 129.813L200.076 196.277C200.378 199.343 197.969 202 194.889 202H164.112C160.783 202 158.307 198.923 159.02 195.671Z" fill="#ACE890"/>
<path d="M100.29 57.3534L185.034 132.94L246.252 37.805C246.252 37.805 232.568 -5.85308 166.103 0.663047C99.6387 7.17918 100.29 57.3534 100.29 57.3534Z" fill="#8BD26A"/>
<path d="M20.4275 65.0315C38.0169 59.6937 91.0388 45.5583 123.435 58.0409C150.871 68.6122 179.99 104.623 190.02 117.861C191.962 120.424 191.025 124.043 188.081 125.338C172.924 132.003 130.129 149.18 100.524 144.885C61.7076 139.253 27.8846 88.857 17.6868 72.2118C15.9951 69.4505 17.3288 65.9719 20.4275 65.0315Z" fill="#ACE890"/>
<path d="M222.733 49.2586C201.439 68.33 183.391 113.364 177.801 128.326C176.785 131.047 178.251 133.969 181.057 134.719C197.613 139.142 250.854 150.287 279.358 120.014C307.198 90.4457 316.169 46.5114 318.513 31.4947C318.964 28.6092 316.87 26.0724 313.951 25.9737C297.848 25.4295 248.855 25.8643 222.733 49.2586Z" fill="#ACE890"/>
<circle cx="143.256" cy="44.2556" r="7.11177" transform="rotate(1.1712 143.256 44.2556)" fill="#030303"/>
<circle cx="202.256" cy="41.2556" r="7.11177" transform="rotate(1.1712 202.256 41.2556)" fill="#030303"/>
<line x1="164.741" y1="53.7612" x2="182.761" y2="52.2595" stroke="black" stroke-width="6" stroke-linecap="round"/>
</svg>
