<svg width="383" height="424" viewBox="0 0 383 424" fill="none" xmlns="http://www.w3.org/2000/svg">
<path d="M76.3324 121.451C62.3023 97.7732 65.9707 54.1381 65.9707 54.1381C65.9707 54.1381 125.921 33.3781 171.809 67.9782C217.696 102.578 219.177 173.666 219.177 173.666C219.177 173.666 103.647 167.549 76.3324 121.451Z" fill="#EFCEDB"/>
<path d="M282.893 102.112C296.433 78.4341 292.893 34.799 292.893 34.799C292.893 34.799 235.039 14.0389 190.755 48.6391C146.472 83.2392 145.043 154.327 145.043 154.327C145.043 154.327 256.533 148.21 282.893 102.112Z" fill="#EFCEDB"/>
<g filter="url(#filter0_d)">
<path d="M110.975 117.103L202.023 198.313L267.795 96.0999C267.795 96.0999 253.093 49.1938 181.684 56.1947C110.275 63.1956 110.975 117.103 110.975 117.103Z" fill="#F3E9EF"/>
</g>
<path d="M374.604 307.454C357.713 315.596 306.49 338.169 271.877 330.674C242.564 324.327 207.559 292.603 195.371 280.835C193.011 278.556 193.387 274.761 196.151 272.994C210.382 263.897 250.819 239.863 281.334 239.544C321.342 239.126 363.346 284.61 376.239 299.786C378.377 302.304 377.579 306.019 374.604 307.454Z" fill="#ACE890"/>
<path d="M11.7306 308.737C25.2818 294.371 67.1744 252.888 104.044 247.234C135.268 242.445 181.642 260.478 198.06 267.467C201.239 268.82 202.298 272.695 200.244 275.473C189.669 289.779 158.935 328.639 129.039 340.437C89.8398 355.906 31.4017 326.971 13.008 316.895C9.9567 315.223 9.34335 311.268 11.7306 308.737Z" fill="#ACE890"/>
<path d="M194.789 115.477C190.628 116.509 187.376 115.31 184.816 113.273C182.199 111.19 180.324 108.233 179.145 105.897C178.952 105.513 178.987 105.148 179.166 104.841C179.353 104.519 179.719 104.24 180.227 104.17L203.988 100.893C204.483 100.825 204.899 100.988 205.159 101.233C205.404 101.464 205.534 101.785 205.462 102.187C204.64 106.769 202.166 113.647 194.789 115.477Z" fill="#EB5757" stroke="#CB3F3F" stroke-width="3.22319" stroke-linecap="round"/>
<path d="M209.921 97.1265C209.921 97.1265 210.91 87.7517 216.869 86.8892C222.701 86.0451 226.191 94.3805 226.191 94.3805" stroke="black" stroke-width="4.29758" stroke-linecap="round"/>
<path d="M156.201 104.979C156.201 104.979 157.19 95.6046 163.15 94.7421C168.982 93.8981 172.471 102.233 172.471 102.233" stroke="black" stroke-width="4.29758" stroke-linecap="round"/>
<path d="M173.444 417.968L190.683 194.951C190.909 192.034 193.341 189.782 196.267 189.782H205.651C208.668 189.782 211.143 192.173 211.248 195.188L218.976 418.205C219.086 421.373 216.548 424 213.379 424H179.028C175.765 424 173.192 421.221 173.444 417.968Z" fill="#ACE890"/>
<path fill-rule="evenodd" clip-rule="evenodd" d="M141.794 34.23C145.892 31.9107 149.514 31.3044 154.21 31.6445C160.366 32.0903 165.904 36.7506 168.927 39.8278C169.578 40.4906 170.763 40.1314 170.942 39.2198C171.755 35.0984 173.654 29.4113 178.097 25.5474C182.002 22.1516 185.584 20.3241 190.711 19.7448C196.899 19.0455 203.124 23.9129 206.131 26.7007C206.837 27.3548 206.325 28.4506 205.365 28.3933C201.807 28.181 195.286 27.8417 189.96 27.8417C184.674 27.8417 183.46 28.1533 179.988 30.5601C176.604 32.9067 174.089 38.1737 172.678 41.7541C172.597 41.9601 172.583 42.1861 172.637 42.401L176.775 58.9969C176.794 59.0735 176.822 59.1477 176.857 59.2182L177.355 60.2118C177.677 60.8544 177.289 61.6258 176.581 61.751L172.128 62.5388C171.501 62.6496 170.916 62.1944 170.869 61.5596L169.564 43.8141C169.537 43.4585 169.339 43.1381 169.024 42.9715C165.074 40.8824 157.74 38.8746 153.726 38.4658C153.46 38.4387 153.213 38.4128 152.982 38.3886L152.982 38.3886C149.94 38.0699 149.774 38.0525 146.5 39.5C142.31 41.3523 137.257 44.6012 134.212 46.6636C133.349 47.2481 132.3 46.4312 132.735 45.4837C134.292 42.0883 137.31 36.7682 141.794 34.23Z" fill="#ACE890"/>
<g filter="url(#filter1_d)">
<path fill-rule="evenodd" clip-rule="evenodd" d="M198.613 170.567C207.825 150.113 221.333 124.666 236.342 111.225C264.407 86.0899 317.045 85.6226 334.346 86.2074C337.482 86.3134 339.731 89.0389 339.248 92.1391C336.729 108.273 327.09 155.476 297.179 187.244C266.555 219.769 209.353 207.795 191.565 203.043C190.737 202.821 190.017 202.423 189.431 201.902C167.741 208.547 136.279 215.795 113.16 211.067C71.874 202.624 38.7136 146.476 28.8054 127.991C27.1618 124.925 28.8076 121.276 32.1894 120.459C51.3864 115.822 109.133 103.942 143.109 119.335C163.924 128.766 184.861 152.532 198.613 170.567Z" fill="#F0DBE3"/>
</g>
<defs>
<filter id="filter0_d" x="100.974" y="44.4824" width="176.82" height="162.831" filterUnits="userSpaceOnUse" color-interpolation-filters="sRGB">
<feFlood flood-opacity="0" result="BackgroundImageFix"/>
<feColorMatrix in="SourceAlpha" type="matrix" values="0 0 0 0 0 0 0 0 0 0 0 0 0 0 0 0 0 0 127 0"/>
<feOffset dy="-1"/>
<feGaussianBlur stdDeviation="5"/>
<feColorMatrix type="matrix" values="0 0 0 0 0.5875 0 0 0 0 0.0660937 0 0 0 0 0.47279 0 0 0 0.05 0"/>
<feBlend mode="normal" in2="BackgroundImageFix" result="effect1_dropShadow"/>
<feBlend mode="normal" in="SourceGraphic" in2="effect1_dropShadow" result="shape"/>
</filter>
<filter id="filter1_d" x="18.1628" y="75.0831" width="331.15" height="146.5" filterUnits="userSpaceOnUse" color-interpolation-filters="sRGB">
<feFlood flood-opacity="0" result="BackgroundImageFix"/>
<feColorMatrix in="SourceAlpha" type="matrix" values="0 0 0 0 0 0 0 0 0 0 0 0 0 0 0 0 0 0 127 0"/>
<feOffset dy="-1"/>
<feGaussianBlur stdDeviation="5"/>
<feColorMatrix type="matrix" values="0 0 0 0 0.5875 0 0 0 0 0.0660937 0 0 0 0 0.47279 0 0 0 0.05 0"/>
<feBlend mode="normal" in2="BackgroundImageFix" result="effect1_dropShadow"/>
<feBlend mode="normal" in="SourceGraphic" in2="effect1_dropShadow" result="shape"/>
</filter>
</defs>
</svg>
