<svg width="378" height="547" viewBox="0 0 378 547" fill="none" xmlns="http://www.w3.org/2000/svg">
<g clip-path="url(#clip0)">
<path d="M54.8561 155.55C38.6638 130.808 40.5116 83.7993 40.5116 83.7993C40.5116 83.7993 103.862 58.6469 154.77 93.5858C205.678 128.525 210.671 204.752 210.671 204.752C210.671 204.752 86.3804 203.719 54.8561 155.55Z" fill="#EE93B4"/>
<path d="M105.32 83.7616C103.943 54.2245 129.418 14.6732 129.418 14.6732C129.418 14.6732 196.762 25.1944 222.86 81.1523C248.957 137.11 214.53 205.303 214.53 205.303C214.53 205.303 108 141.266 105.32 83.7616Z" fill="#EE93B4"/>
<path d="M343.636 148.788C358.182 123.35 354.379 76.4697 354.379 76.4697C354.379 76.4697 292.222 54.1658 244.646 91.339C197.069 128.512 195.535 204.886 195.535 204.886C195.535 204.886 315.316 198.314 343.636 148.788Z" fill="#EE93B4"/>
<path d="M284.37 91.2932C292.932 63.268 278.858 18.3889 278.858 18.3889C278.858 18.3889 213.309 10.3786 175.128 57.1504C136.947 103.922 152.336 178.746 152.336 178.746C152.336 178.746 267.7 145.855 284.37 91.2932Z" fill="#EB9EBA"/>
<path d="M178.313 541.103L195.746 212.304C195.903 209.33 198.361 207 201.339 207H210.45C213.491 207 215.977 209.427 216.049 212.468L223.864 541.266C223.938 544.411 221.41 547 218.265 547H183.906C180.696 547 178.143 544.308 178.313 541.103Z" fill="#ACE890"/>
<g filter="url(#filter0_d)">
<path d="M94.0071 126.775L209.554 205.022L310.492 111.734C310.492 111.734 272.254 43.5109 195.535 51.0324C118.815 58.5539 94.0071 126.775 94.0071 126.775Z" fill="#EABECE"/>
</g>
<path d="M206.36 123.457C201.889 124.566 198.396 123.278 195.645 121.089C192.833 118.852 190.819 115.675 189.553 113.165C189.345 112.752 189.383 112.359 189.575 112.03C189.777 111.684 190.17 111.384 190.715 111.309L216.243 107.789C216.775 107.715 217.222 107.89 217.501 108.154C217.764 108.402 217.904 108.747 217.827 109.179C216.944 114.102 214.286 121.491 206.36 123.457Z" fill="#EB5757" stroke="#CB3F3F" stroke-width="3.46288" stroke-linecap="round"/>
<path d="M222.617 103.742C222.617 103.742 223.68 93.6699 230.083 92.7433C236.348 91.8365 240.097 100.792 240.097 100.792" stroke="black" stroke-width="4.61718" stroke-linecap="round"/>
<path d="M164.902 112.179C164.902 112.179 165.965 102.107 172.368 101.18C178.633 100.273 182.382 109.229 182.382 109.229" stroke="black" stroke-width="4.61718" stroke-linecap="round"/>
<path d="M320.351 434.604C315.456 446.666 299.626 482.153 278.325 494.431C260.287 504.828 227.491 504.823 215.736 504.45C213.46 504.378 211.885 502.25 212.483 500.053C215.564 488.739 225.165 457.527 240.715 443.14C261.102 424.277 303.912 428.099 317.618 429.897C319.892 430.196 321.213 432.479 320.351 434.604Z" fill="#ACE890"/>
<g filter="url(#filter1_d)">
<path fill-rule="evenodd" clip-rule="evenodd" d="M206.26 192.858C219.389 171.757 241.795 139.467 263.513 125.589C297.621 103.794 353.516 112.407 371.759 116.021C375.066 116.676 376.98 119.956 375.931 123.159C370.468 139.831 352.079 188.214 314.866 216.723C279.02 244.185 225.045 225.809 203.761 216.778C181.555 224.405 139.49 236.477 110.033 230.453C65.6761 221.383 30.0497 161.059 19.4046 141.199C17.6388 137.905 19.407 133.985 23.0403 133.107C43.6649 128.125 105.706 115.361 142.209 131.9C166.937 143.104 191.825 173.138 206.26 192.858Z" fill="#F0A6C1"/>
</g>
<path d="M74.2316 364.186C87.6527 361.869 127.931 356.321 150.61 368.46C169.817 378.74 187.938 407.879 194.103 418.53C195.296 420.592 194.277 423.167 191.994 423.85C180.24 427.365 147.203 436.085 125.828 430.221C97.8013 422.532 77.5374 382.386 71.5602 369.215C70.5687 367.03 71.8673 364.594 74.2316 364.186Z" fill="#ACE890"/>
<path d="M245.396 327.294C232.515 329.62 219 347.915 219 347.915C219 347.915 240.983 357.131 254.195 352.879C264.433 349.584 276 336.077 276 336.077C276 336.077 257.633 325.084 245.396 327.294Z" fill="#A3E086"/>
<path d="M176 295.947C185.1 298.771 194 315.947 194 315.947C194 315.947 178.001 322.665 165.5 320.947C151.652 319.043 137 304.447 137 304.447C137 304.447 161.5 291.447 176 295.947Z" fill="#A3E086"/>
<path d="M168.355 24.2274C170.884 29.8334 173.106 34.1729 175.681 39.9695C176.291 41.343 175.205 42.8578 173.707 42.7391L154.307 41.2025C152.737 41.0782 151.724 42.6726 152.643 43.9514C157.849 51.1917 173.872 68.5999 205.63 64.825C238.462 60.9224 245.518 41.0302 246.987 34.1288C247.247 32.9051 246.209 31.9001 244.983 32.1491C237.667 33.6348 232.704 37.5081 225.367 38.9725C224.173 39.2107 223.112 38.2429 223.163 37.0269C223.475 29.5046 224.348 24.9291 224.832 18.3132C224.974 16.3812 222.567 15.5173 221.392 17.057L210.493 31.3291C209.564 32.5462 207.672 32.3066 207.138 30.8714C204.446 23.6367 203.786 18.1809 201.592 11.3821C200.986 9.50487 198.2 9.69394 197.485 11.5323C195.298 17.1552 192.221 21.336 190.472 27.6687C190.105 28.9956 188.585 29.6932 187.368 29.0507C181.867 26.1479 175.115 23.3472 170.81 21.6492C169.181 21.0069 167.635 22.6317 168.355 24.2274Z" fill="#AA76AB"/>
</g>
<defs>
<filter id="filter0_d" x="84.0071" y="39.4532" width="236.485" height="174.569" filterUnits="userSpaceOnUse" color-interpolation-filters="sRGB">
<feFlood flood-opacity="0" result="BackgroundImageFix"/>
<feColorMatrix in="SourceAlpha" type="matrix" values="0 0 0 0 0 0 0 0 0 0 0 0 0 0 0 0 0 0 127 0"/>
<feOffset dy="-1"/>
<feGaussianBlur stdDeviation="5"/>
<feColorMatrix type="matrix" values="0 0 0 0 0.183333 0 0 0 0 0.0282639 0 0 0 0 0.0747847 0 0 0 0.05 0"/>
<feBlend mode="normal" in2="BackgroundImageFix" result="effect1_dropShadow"/>
<feBlend mode="normal" in="SourceGraphic" in2="effect1_dropShadow" result="shape"/>
</filter>
<filter id="filter1_d" x="8.71423" y="100.274" width="377.505" height="140.808" filterUnits="userSpaceOnUse" color-interpolation-filters="sRGB">
<feFlood flood-opacity="0" result="BackgroundImageFix"/>
<feColorMatrix in="SourceAlpha" type="matrix" values="0 0 0 0 0 0 0 0 0 0 0 0 0 0 0 0 0 0 127 0"/>
<feOffset dy="-1"/>
<feGaussianBlur stdDeviation="5"/>
<feColorMatrix type="matrix" values="0 0 0 0 0.183333 0 0 0 0 0.0282639 0 0 0 0 0.0747847 0 0 0 0.05 0"/>
<feBlend mode="normal" in2="BackgroundImageFix" result="effect1_dropShadow"/>
<feBlend mode="normal" in="SourceGraphic" in2="effect1_dropShadow" result="shape"/>
</filter>
<clipPath id="clip0">
<rect width="378" height="547" fill="white"/>
</clipPath>
</defs>
</svg>
