<svg width="319" height="202" viewBox="0 0 319 202" fill="none" xmlns="http://www.w3.org/2000/svg">
<g clip-path="url(#clip0)">
<path d="M158.019 195.671L172.588 129.206C173.112 126.814 175.231 125.11 177.68 125.11H187.358C190.039 125.11 192.283 127.144 192.546 129.813L199.076 196.277C199.378 199.343 196.969 202 193.888 202H163.112C159.783 202 157.307 198.923 158.019 195.671Z" fill="#ACE890"/>
<path d="M99.2903 57.3534L184.034 132.94L245.252 37.805C245.252 37.805 231.568 -5.85308 165.103 0.663047C98.6387 7.17918 99.2903 57.3534 99.2903 57.3534Z" fill="#8BD26A"/>
<path d="M19.0755 65.1386C36.2988 59.8861 89.8197 45.4739 122.435 58.0409C149.504 68.4711 178.213 103.666 188.608 117.319C190.694 120.058 189.467 123.914 186.195 124.983C169.011 130.597 121.502 144.78 92 140.5C53.3194 134.888 24.7852 87.8473 16.2186 72.0518C14.7352 69.3166 16.0992 66.0463 19.0755 65.1386Z" fill="#ACE890"/>
<path d="M221.733 49.2586C200.879 67.9358 183.138 111.514 177.164 127.36C176.012 130.415 177.963 133.653 181.213 133.961C200.253 135.763 258.289 138.462 286.5 108.5C314.1 79.1863 317.802 43.3242 318.215 30.8096C318.301 28.1945 316.29 26.0984 313.675 25.9996C298.371 25.4215 248.259 25.502 221.733 49.2586Z" fill="#ACE890"/>
<circle cx="134.528" cy="41.2851" r="10.2687" transform="rotate(1.1712 134.528 41.2851)" fill="#030303"/>
<circle cx="204.466" cy="36.5524" r="10.2687" transform="rotate(1.1712 204.466 36.5524)" fill="#030303"/>
<path d="M156 46.9399C156 46.9399 159.61 57.7109 172.049 55.9675C183.387 54.3783 184.687 45 184.687 45" stroke="black" stroke-width="6.16122" stroke-linecap="round"/>
</g>
<defs>
<clipPath id="clip0">
<rect x="0.412842" width="318.587" height="202" fill="white"/>
</clipPath>
</defs>
</svg>
