<svg width="320" height="202" viewBox="0 0 320 202" fill="none" xmlns="http://www.w3.org/2000/svg">
<path d="M159.02 195.671L173.588 129.206C174.113 126.814 176.231 125.11 178.68 125.11H188.358C191.039 125.11 193.283 127.144 193.546 129.813L200.076 196.277C200.378 199.343 197.969 202 194.889 202H164.112C160.783 202 158.307 198.923 159.02 195.671Z" fill="#ACE890"/>
<path d="M100.291 57.3534L185.034 132.94L246.252 37.805C246.252 37.805 232.568 -5.85308 166.103 0.663047C99.6389 7.17918 100.291 57.3534 100.291 57.3534Z" fill="#8BD26A"/>
<path d="M20.4276 65.0315C38.017 59.6937 91.0389 45.5583 123.435 58.0409C150.871 68.6122 179.99 104.623 190.02 117.861C191.962 120.424 191.025 124.043 188.082 125.338C172.924 132.003 130.129 149.18 100.524 144.885C61.7077 139.253 27.8847 88.857 17.6869 72.2118C15.9952 69.4505 17.3289 65.9719 20.4276 65.0315Z" fill="#ACE890"/>
<path d="M222.733 49.2586C201.439 68.33 183.391 113.364 177.801 128.326C176.785 131.047 178.252 133.969 181.058 134.719C197.613 139.142 250.854 150.287 279.358 120.014C307.198 90.4457 316.17 46.5114 318.514 31.4947C318.964 28.6092 316.87 26.0724 313.951 25.9737C297.848 25.4295 248.855 25.8643 222.733 49.2586Z" fill="#ACE890"/>
<circle cx="147.144" cy="40.367" r="6.02249" transform="rotate(1.1712 147.144 40.367)" fill="#030303"/>
<circle cx="184.144" cy="34.1443" r="6.02249" transform="rotate(1.1712 184.144 34.1443)" fill="#030303"/>
<path d="M158.884 52.9697C158.884 52.9697 161.319 46.7291 168.494 45.6061C175.67 44.483 179.818 49.7493 179.818 49.7493" stroke="black" stroke-width="6" stroke-linecap="round"/>
</svg>
