<svg width="46" height="26" viewBox="0 0 46 26" fill="none" xmlns="http://www.w3.org/2000/svg">
<mask id="path-1-outside-1" maskUnits="userSpaceOnUse" x="-1" y="0" width="47" height="26" fill="black">
<rect fill="white" x="-1" width="47" height="26"/>
<path fill-rule="evenodd" clip-rule="evenodd" d="M3.62436 22.108C3.30234 22.1984 2.98414 21.952 3.00061 21.618C3.51192 11.2495 12.0805 3 22.5758 3C33.0297 3 41.572 11.1845 42.1446 21.4953C42.1621 21.8098 41.88 22.0547 41.5695 22.0014L33.3466 20.59C33.13 20.5528 32.9641 20.3779 32.9292 20.1609C32.0938 14.9613 27.7761 11 22.5753 11C17.6411 11 13.5018 14.5656 12.377 19.3714C12.3343 19.5535 12.1984 19.7009 12.0183 19.7515L3.62436 22.108Z"/>
</mask>
<path d="M12.377 19.3714L15.298 20.0551L12.377 19.3714ZM12.0183 19.7515L12.8292 22.6398L12.0183 19.7515ZM33.3466 20.59L33.8541 17.6332L33.3466 20.59ZM32.9292 20.1609L29.9672 20.6368L32.9292 20.1609ZM42.1446 21.4953L39.1492 21.6616L42.1446 21.4953ZM41.5695 22.0014L41.062 24.9582L41.5695 22.0014ZM3.62436 22.108L4.43523 24.9964L3.62436 22.108ZM22.5758 0C10.4731 0 0.593948 9.51219 0.00425434 21.4702L5.99697 21.7657C6.42989 12.9868 13.6878 6 22.5758 6V0ZM45.14 21.329C44.4796 9.43728 34.6309 0 22.5758 0V6C31.4286 6 38.6644 12.9317 39.1492 21.6616L45.14 21.329ZM42.077 19.0447L33.8541 17.6332L32.8391 23.5468L41.062 24.9582L42.077 19.0447ZM35.8912 19.6851C34.8424 13.157 29.3734 8 22.5753 8V14C26.1788 14 29.3452 16.7656 29.9672 20.6368L35.8912 19.6851ZM22.5753 8C16.1277 8 10.8701 12.6454 9.45591 18.6878L15.298 20.0551C16.1334 16.4858 19.1544 14 22.5753 14V8ZM11.2074 16.8632L2.81348 19.2197L4.43523 24.9964L12.8292 22.6398L11.2074 16.8632ZM9.45591 18.6878C9.6515 17.8521 10.2896 17.1208 11.2074 16.8632L12.8292 22.6398C14.1072 22.281 15.0172 21.255 15.298 20.0551L9.45591 18.6878ZM33.8541 17.6332C34.9601 17.8231 35.7321 18.6946 35.8912 19.6851L29.9672 20.6368C30.196 22.0612 31.2998 23.2826 32.8391 23.5468L33.8541 17.6332ZM39.1492 21.6616C39.0567 19.9965 40.5423 18.7812 42.077 19.0447L41.062 24.9582C43.2177 25.3282 45.2674 23.623 45.14 21.329L39.1492 21.6616ZM0.00425434 21.4702C-0.11637 23.9163 2.20365 25.6229 4.43523 24.9964L2.81348 19.2197C4.40104 18.774 6.08465 19.9878 5.99697 21.7657L0.00425434 21.4702Z" fill="#63585E" mask="url(#path-1-outside-1)"/>
<path d="M21.144 9.25416L20.2446 22.5057C20.153 23.8551 21.2229 25 22.5753 25C23.9229 25 24.9843 23.8512 24.878 22.5078L23.8273 9.23907C23.7719 8.53947 23.188 8 22.4862 8C21.7786 8 21.192 8.54818 21.144 9.25416Z" fill="#63585E" stroke="#63585E"/>
</svg>
