<svg width="320" height="202" viewBox="0 0 320 202" fill="none" xmlns="http://www.w3.org/2000/svg">
<path d="M159.02 195.671L173.588 129.206C174.112 126.814 176.231 125.11 178.68 125.11H188.358C191.039 125.11 193.283 127.144 193.546 129.813L200.076 196.277C200.378 199.343 197.969 202 194.888 202H164.112C160.783 202 158.307 198.923 159.02 195.671Z" fill="#ACE890"/>
<path d="M100.29 57.3534L185.034 132.94L246.252 37.805C246.252 37.805 232.568 -5.85308 166.103 0.663047C99.6387 7.17918 100.29 57.3534 100.29 57.3534Z" fill="#8BD26A"/>
<path d="M20.4274 65.0315C38.0168 59.6937 91.0387 45.5583 123.435 58.0409C150.87 68.6122 179.99 104.623 190.02 117.861C191.962 120.424 191.025 124.043 188.081 125.338C172.924 132.003 130.129 149.18 100.524 144.885C61.7075 139.253 27.8845 88.857 17.6867 72.2118C15.995 69.4505 17.3287 65.9719 20.4274 65.0315Z" fill="#ACE890"/>
<path d="M222.733 49.2586C201.439 68.33 183.391 113.364 177.801 128.326C176.785 131.047 178.251 133.969 181.057 134.719C197.613 139.142 250.854 150.287 279.358 120.014C307.198 90.4457 316.169 46.5114 318.513 31.4947C318.964 28.6092 316.87 26.0724 313.951 25.9737C297.848 25.4295 248.855 25.8643 222.733 49.2586Z" fill="#ACE890"/>
<path d="M170.301 55.5308C166.428 56.4916 163.401 55.3762 161.018 53.48C158.582 51.5415 156.838 48.7892 155.74 46.6145C155.56 46.2574 155.593 45.917 155.76 45.6318C155.934 45.3322 156.275 45.0719 156.747 45.0068L178.863 41.9573C179.324 41.8937 179.711 42.0453 179.953 42.2733C180.181 42.4888 180.302 42.7872 180.235 43.1616C179.47 47.4266 177.167 53.8278 170.301 55.5308Z" fill="#EB5757" stroke="#CB3F3F" stroke-width="3" stroke-linecap="round"/>
<path d="M184.385 38.4514C184.385 38.4514 185.306 29.7257 190.852 28.9229C196.281 28.1373 199.528 35.8955 199.528 35.8955" stroke="black" stroke-width="4" stroke-linecap="round"/>
<path d="M134.385 45.7606C134.385 45.7606 135.306 37.0349 140.852 36.2321C146.281 35.4465 149.528 43.2047 149.528 43.2047" stroke="black" stroke-width="4" stroke-linecap="round"/>
</svg>
